<svg version="1.2" xmlns="http://www.w3.org/2000/svg" viewBox="0 0 132 15" width="132" height="15">
	<title>Vector Smart Object-ai</title>
	<style>
		.s0 { fill: #18c5f4 } 
	</style>
	<g id="Layer 1">
		<g id="&lt;Group&gt;">
			<path id="&lt;Compound Path&gt;" fill-rule="evenodd" class="s0" d="m52.1 10l0.3 0.1c-0.4 1.2-0.9 2.1-1.8 2.1-0.9 0-1.3-0.4-1-1.5l0.6-2.2h-0.2c-0.8 1.8-2.2 3.7-3.3 3.7-1.6 0-1.7-1.6-1.2-3.2 0.7-2.1 2.5-4.4 4.4-4.4 1.1 0 1.7 0.5 1.5 1.8-0.2 1.1-0.9 4.4-0.9 4.4-0.1 0.5-0.1 1.1 0.3 1.1 0.6 0 1.1-1.1 1.3-1.9zm-36.1-5.1c-0.6 0-1.2 0.9-1.5 1.9l-0.2-0.1c0.3-1.3 0.9-2.1 1.9-2.1 1 0 1 0.7 0.9 1.5-0.3 1.1-1.1 4.7-1.1 5.3 0 0.3 0.1 0.5 0.5 0.5 0.6 0 1.1-1.1 1.2-1.9l0.3 0.1c-0.2 0.8-0.7 2.1-1.5 2.1-0.9 0-1.3-0.4-1.3-1.1 0-0.6 0.8-3.9 1-5.1 0-0.3 0.2-1.1-0.2-1.1zm-5.8 1.8c1.1 0.1 2.5 0.5 2.5 1.9 0 2.7-3.3 3.9-5.7 3.9-0.9 0-1.9-0.2-2.8-0.3l0.1-0.3 0.7 0.1 1.9-9.2h1l-1.9 9.3q0.5 0 1 0c1.8-0.1 4.7-0.9 4.7-3.4 0-1.1-0.9-1.7-2.1-1.7-0.3 0-0.8 0-1.3 0.1l0.1-0.4c1.7 0 3.3-1.2 3.3-3.1 0-1.5-1.1-2.4-3.2-2.4-3.9 0-7.5 3.4-7.5 7.3-0.6 0-0.9-0.4-0.9-1.2 0-4.1 5.1-6.4 8.5-6.4 1.7 0 4 0.8 4 2.6 0 1.7-1 2.5-2.4 3.2zm62.3-1.9h2v0.3h-2c0 0-1 4.6-1.1 5.4-0.1 0.6-0.1 1.1 0.6 1.1 0.6 0 1.4-0.9 1.5-1.6l0.3 0.1c-0.3 1.1-1.3 2.1-2.1 2.1-1 0-1.4-0.6-1.3-1.8 0.2-1.1 1.2-5.3 1.2-5.3h-1.3v-0.3h1.3l0.5-2.1h0.9zm-21.9 0.7c0-0.4-0.2-0.6-1-0.6-2.2 0-3.5 4.6-3.5 6.1 0 0.6 0.2 1 0.6 1 0.6 0 1.4-1 2.2-2.3 0.5-0.9 1.7-3.2 1.7-4.2zm-33.3-3.9c-0.4 0-0.7-0.3-0.7-0.7 0-0.4 0.3-0.7 0.7-0.7 0.4 0 0.7 0.3 0.7 0.7 0 0.4-0.3 0.7-0.7 0.7zm13.1 7.1c2.1-0.5 3.5-3.8 1.5-3.8-1.4 0-2.2 1.8-2.6 3.4-0.2 1.2-0.3 3.4 1.4 3.4 1.6 0 2.6-1.8 2.6-1.9l0.2 0.2c0 0-0.9 2.3-3 2.3-2.2 0-2.5-2.1-2.1-4.1 0.4-1.7 1.5-3.6 3.7-3.6 2.9 0 1.5 4.2-1.6 4.4zm9-2.6c0.1-0.9 0.1-1.2-0.2-1.2-0.6 0-1.2 0.9-1.5 2l-0.2-0.1c0.3-1.4 0.9-2.2 1.9-2.2 0.9 0 1.1 0.6 0.9 1.5 0 0-0.5 3.1-0.6 4-0.2 1-0.2 1.9 0.5 1.9 0.3 0 0.7-0.3 1.1-0.7 1.2-1.2 2.1-3.9 2.1-6.6l0.2-0.2c0.6 0.4 0.7 1.2 0.4 2.5-0.3 1.4-2 5.3-3.8 5.3-1.2 0-1.7-0.9-1.4-2.3 0.2-1.3 0.6-3.9 0.6-3.9zm43.2 4.7c-0.1 0.7-0.2 1.2 0.3 1.2 0.6 0 1.1-1.2 1.3-2l0.3 0.1c-0.2 0.9-0.7 2.2-1.7 2.2-0.8 0-1.4-0.4-1.1-1.6l0.6-2.2h-0.1c-0.9 1.8-2.3 3.8-3.3 3.8-1.6 0-1.6-1.8-1.3-3.4 0.5-2.1 2-4.3 4.3-4.3 0.3 0 0.6 0 1 0.2l0.9-4.3h0.9zm-0.8-5.9c-2 0-2.8 2.2-3.2 4-0.3 1.6-0.6 3 0.3 3 0.6 0 1.4-0.7 2.2-2 0.7-1.2 1.3-2.6 1.5-3.6 0.2-1.1 0.2-1.4-0.8-1.4zm25.7-1.3l-1.9 8.4h-1l1.6-6.3h-0.2c-1.2 1.8-2.4 3.2-3.9 4.5l-0.3-0.4c2.1-1.8 4.5-4.6 4.9-6.3zm7.9 4.4c-0.6 3-2.7 6.7-6.2 6.7-1 0-1.9-0.5-2.3-1.1l0.3-0.2c0.3 0.4 1 1 2.1 1 2.8 0 4.5-3.7 5.1-6.4 0.5-2.6 0.1-3.9-1.4-3.9-1.3 0-2.4 0.9-2.9 3.1-0.5 2.3 0.2 3.4 2.4 2.5l0.1 0.3c-2.1 0.9-4-0.1-3.4-2.8 0.5-1.9 1.6-3.4 4-3.4 2 0 2.7 2 2.2 4.2zm16.1 4h-5.9v-0.8c2.3-0.5 5.6-2.1 5.6-4.9 0-1-0.5-1.6-1.9-1.6-1.8 0-2.4 0.6-2.8 2.5h-0.2c0.3-1.9 1-3.4 3.2-3.4 1.5 0 2.1 0.8 2.1 2.1 0 2.8-2.4 4.5-4.8 5.3v0.1l2.1-0.2h2.8zm-82.8-11.8l0.3 0.1q-0.1 0.6 0.2 0.9c0.4 0.3 1 0.4 1.5 0.2 0.7-0.3 1.1-0.7 1.2-1.3l0.3 0.1v0.3c-0.3 0.9-1.2 1.8-2.2 1.8-1 0-1.4-1-1.3-2.1zm-22.2 9.8l0.3 0.1c-0.2 0.9-0.8 2.2-1.6 2.2-1 0-1.4-0.7-1.2-1.6 0 0 0.8-4.1 0.9-4.6 0.1-0.8 0.2-1.2-0.4-1.2-1.4 0-3.1 2.6-4 7.1h-0.9c0 0 1.1-5.3 1.2-5.9 0.1-0.9 0.1-1.2-0.2-1.2-0.6 0-1.2 0.9-1.4 2l-0.3-0.1c0.3-1.4 0.9-2.2 2-2.2 0.8 0 1.1 0.6 0.8 1.5l-0.6 2.3h0.1c1.1-2.6 2.3-3.8 3.4-3.8 0.9 0 1.4 0.5 1.2 1.5-0.1 0.9-0.9 4.7-0.9 4.7-0.1 0.4-0.4 1.2 0.3 1.2 0.6 0 1.1-1.2 1.3-2zm61.2-3.9c0.1-0.9 0.1-1.2-0.2-1.2-0.6 0-1.2 0.9-1.4 2l-0.3-0.1c0.3-1.4 0.9-2.2 1.9-2.2 0.9 0 1.1 0.6 0.9 1.5l-1 4.7c-0.1 0.6-0.1 1.2 0.4 1.2 0.6 0 1.1-1.2 1.3-2l0.2 0.1c-0.2 0.9-0.7 2.2-1.5 2.2-1 0-1.5-0.7-1.3-1.6zm-28.4-1.1c-0.3 0.9-0.9 1.5-1.5 1.9l-2.2 3c1-0.4 1.8 0.2 1.6 1.4-0.1 0.4-0.2 0.7 0.1 0.7 0.6 0 1.5-1.6 1.6-2.2l0.3 0.1c-0.1 0.6-1.1 2.4-1.9 2.4-0.5 0-1.3-0.2-1.1-1.1 0.2-0.7 0.2-1.1-0.1-1.1-0.5 0-1.3 0.6-2.3 2l-0.3-0.1c0.4-0.9 1-1.5 1.5-1.8l2.2-3.1c-1 0.4-1.7-0.2-1.6-1.4 0.1-0.4 0.2-0.7-0.1-0.7-0.5 0-1.2 1.5-1.3 2.1h-0.3c0.1-0.7 0.9-2.4 1.7-2.4 0.5 0 1.2 0.2 1 1.1-0.1 0.8-0.1 1.1 0.2 1.1 0.4 0 1.3-0.5 2.3-2zm64.6 3.1c-0.7 3-2.8 6.6-6.2 6.6-1.1 0-1.9-0.5-2.3-1l0.3-0.3c0.2 0.4 1 1 2 1 2.8 0 4.5-3.7 5.1-6.4 0.6-2.5 0.1-3.9-1.3-3.9-1.4 0-2.5 0.9-3 3.2-0.5 2.2 0.3 3.3 2.5 2.4l0.1 0.3c-2.2 0.9-4-0.1-3.4-2.8 0.4-1.9 1.5-3.4 3.9-3.4 2 0 2.7 2.1 2.3 4.3zm-63.2-1.2l-0.3-0.1c0.2-0.9 0.7-2.2 1.7-2.2 0.9 0 1.3 0.6 1.1 1.5 0 0-0.8 4.2-0.9 4.7-0.2 0.8-0.2 1.1 0.3 1.1 1.5 0 3.2-2.5 4.1-7.1h0.9c0 0-1.1 5.4-1.2 6-0.1 0.9-0.1 1.1 0.1 1.1 0.7 0 1.3-0.8 1.5-1.9l0.3 0.1c-0.4 1.4-0.9 2.2-2 2.2-0.8 0-1-0.7-0.8-1.5l0.6-2.3h-0.2c-1 2.6-2.3 3.8-3.3 3.8-0.9 0-1.5-0.5-1.2-1.5 0.1-1 0.9-4.7 0.9-4.7 0.1-0.7 0.2-1.2-0.3-1.2-0.6 0-1.2 1.2-1.3 2zm28.2-5.3c-0.4 0-0.7-0.3-0.7-0.7 0-0.4 0.3-0.7 0.7-0.7 0.4 0 0.7 0.3 0.7 0.7 0 0.4-0.3 0.7-0.7 0.7zm9.3 8.4l0.3 0.1c-0.2 0.9-0.8 2.2-1.6 2.2-1 0-1.4-0.7-1.2-1.5 0 0 0.8-4.2 0.9-4.7 0.2-0.8 0.2-1.2-0.4-1.2-1.4 0-3.1 2.6-4 7.1h-0.9c0 0 1.1-5.3 1.2-5.9 0.1-0.9 0.1-1.2-0.2-1.2-0.6 0-1.2 0.9-1.4 2l-0.3-0.1c0.3-1.4 0.9-2.2 2-2.2 0.8 0 1.1 0.6 0.8 1.5l-0.6 2.3h0.2c1-2.6 2.2-3.8 3.3-3.8 0.9 0 1.4 0.5 1.2 1.5-0.1 1-0.9 4.7-0.9 4.7-0.1 0.4-0.4 1.2 0.3 1.2 0.6 0 1.2-1.2 1.3-2z"/>
		</g>
	</g>
</svg>