<svg version="1.2" xmlns="http://www.w3.org/2000/svg" viewBox="0 0 50 65" width="50" height="65"><style></style><path fill-rule="evenodd" d="m46.2 0c2.1 0 3.8 1.7 3.8 3.8v42.3c0 2.1-1.7 3.8-3.8 3.8h-16.7v13.6h4.6q0.3 0 0.5 0.2 0.2 0.2 0.2 0.5 0 0.3-0.2 0.6-0.2 0.2-0.5 0.2h-18.2c-0.4 0-0.8-0.3-0.8-0.7 0-0.5 0.3-0.8 0.7-0.8q0.1 0 0.1 0h4.6v-13.6h-16.7c-2.1 0-3.8-1.7-3.8-3.8v-42.3c0-2.1 1.7-3.8 3.8-3.8zm-42.4 1.5c-1.2 0-2.2 1-2.2 2.3v42.3c0 1.3 1 2.3 2.2 2.3h42.4c1.3 0 2.3-1 2.3-2.3v-42.3c0-1.3-1-2.3-2.3-2.3zm18.2 62h6v-13.6h-6zm-9.4-26.7v-10.4q0 0 0 0 0 0 0 0v-11.8l-2 2v5.2c0 0.4-0.3 0.7-0.7 0.7-0.3 0-0.6-0.3-0.6-0.7v-5.5q0-0.2 0.1-0.4l3.2-3.2v-2.7c0-1.1 0.9-2 2-2h20.7c1.1 0 2 0.9 2 2v2.7l3.2 3.2q0.2 0.2 0.2 0.4v5.5c0 0.4-0.3 0.7-0.7 0.7-0.4 0-0.7-0.3-0.7-0.7v-5.2l-2-2v22.2c0 1-0.7 1.8-1.7 2v2.1c0 0.6-0.4 1-1 1h-4.4c-0.6 0-1-0.4-1-1v-2.1h-8.5v2.1c0 0.6-0.4 1-1 1h-4.4c-0.6 0-1-0.4-1-1v-2.1c-1-0.2-1.7-1-1.7-2zm2-27.4c-0.3 0-0.6 0.3-0.6 0.6v2.3h22v-2.3c0-0.3-0.3-0.6-0.7-0.6h-20.7zm-0.6 27.4c0 0.4 0.3 0.7 0.6 0.7h20.7c0.4 0 0.7-0.3 0.7-0.7v-9.7h-22zm22-23.2h-10.4v12.1h10.4zm-22 0v12.1h10.3v-12.1zm1.7 26.9h3.7v-1.7h-3.7zm14.9 0h3.7v-1.7h-3.7zm-10.5-9.3h-2.6c-0.3 0-0.7-0.3-0.7-0.7 0-0.3 0.4-0.6 0.7-0.6h2.6c0.4 0 0.7 0.3 0.7 0.6 0 0.4-0.3 0.7-0.7 0.7zm12.3 0h-2.5c-0.4 0-0.7-0.3-0.7-0.7 0-0.3 0.3-0.6 0.7-0.6h2.5c0.4 0 0.7 0.3 0.7 0.6 0 0.4-0.3 0.7-0.7 0.7z"/></svg>