<svg version="1.2" xmlns="http://www.w3.org/2000/svg" viewBox="0 0 50 65" width="50" height="65"><style></style><path fill-rule="evenodd" d="m46.2 0c2.1 0 3.8 1.7 3.8 3.8v42.3c0 2.1-1.7 3.8-3.8 3.8h-16.7v13.6h4.6q0.3 0 0.5 0.2 0.2 0.2 0.2 0.5 0 0.3-0.2 0.6-0.2 0.2-0.5 0.2h-18.2c-0.4 0-0.8-0.3-0.8-0.7 0-0.5 0.3-0.8 0.7-0.8q0.1 0 0.1 0h4.6v-13.6h-16.7c-2.1 0-3.8-1.7-3.8-3.8v-42.3c0-2.1 1.7-3.8 3.8-3.8zm-42.4 1.5c-1.2 0-2.2 1-2.2 2.3v42.3c0 1.3 1 2.3 2.2 2.3h42.4c1.3 0 2.3-1 2.3-2.3v-42.3c0-1.3-1-2.3-2.3-2.3zm29.6 8.3c1.2 0 2.3 0.8 2.7 1.9h0.1v0.1l4.4 9q0.1 0.1 0.1 0.2c1.1 1 1.7 2.4 1.7 4v9c0 0.4-0.3 0.8-0.8 0.8h-2.2v4.5c0 0.4-0.4 0.8-0.8 0.8h-6c-0.5 0-0.8-0.4-0.8-0.8v-4.5h-13.6v4.5c0 0.4-0.3 0.8-0.8 0.8h-6c-0.4 0-0.8-0.4-0.8-0.8v-4.5h-2.2c-0.5 0-0.8-0.4-0.8-0.8v-9c0-1.6 0.7-3 1.7-3.9q0-0.2 0.1-0.3l4.4-9v-0.1h0.1c0.4-1.1 1.5-1.9 2.7-1.9zm-16.8 1.6c-0.5 0-1.2 0.5-1.4 0.9q0 0.1 0 0.1l-3.6 7.4q0.5-0.1 1.2-0.1h24.5q0.6 0 1.1 0.1l-3.6-7.4q0 0 0-0.1c-0.2-0.4-0.9-0.9-1.4-0.9h-16.8zm-3.8 9.8c-2 0-3.7 1.6-3.7 3.8v8.3h31.8v-8.3c0-2.2-1.6-3.8-3.6-3.8zm3.3 3c1.6 0 2.9 1.4 2.9 3 0 1.6-1.3 3-2.9 3h-4.7v-6zm22.5 0v6h-4.6c-1.6 0-2.9-1.4-2.9-3 0-1.6 1.3-3 2.9-3zm-25.8 4.5h3.2c0.7 0 1.4-0.6 1.4-1.5 0-0.9-0.7-1.5-1.4-1.5h-3.2zm21.1-3c-0.8 0-1.4 0.6-1.4 1.5 0 0.9 0.6 1.5 1.4 1.5h3.2v-3zm-21.9 12.8h4.6v-3.8h-4.6zm21.2 0h4.6v-3.7h-4.6zm-11.3 24.9h6v-13.6h-6z"/></svg>