<svg width="41" height="55" viewBox="0 0 41 55" fill="none" xmlns="http://www.w3.org/2000/svg">
<path d="M19.1805 40.2492L19.1902 40.25H19.2H19.45V46.05H14.5C14.1432 46.05 13.8264 46.17 13.5982 46.3982C13.37 46.6264 13.25 46.9432 13.25 47.3C13.25 47.9552 13.7797 48.45 14.5 48.45H19.45V53.5C19.45 53.8369 19.6184 54.1267 19.8488 54.3264C20.0785 54.5255 20.3857 54.65 20.7 54.65C21.0143 54.65 21.3215 54.5255 21.5512 54.3264C21.7816 54.1267 21.95 53.8369 21.95 53.5V48.45H26.9C27.6203 48.45 28.15 47.9552 28.15 47.3C28.15 46.9432 28.03 46.6264 27.8018 46.3982C27.5736 46.17 27.2568 46.05 26.9 46.05H21.95V40.25H22.2H22.2098L22.2195 40.2492C32.5469 39.4392 40.65 30.8332 40.65 20.5C40.65 9.55862 31.6347 0.75 20.7 0.75C9.76526 0.75 0.75 9.55862 0.75 20.5C0.75 30.8332 8.85306 39.4392 19.1805 40.2492ZM27.6035 36.4694C25.431 37.3579 23.1637 37.85 20.8 37.85C18.4349 37.85 16.0676 37.3573 13.8965 36.4694C11.8272 35.5822 9.95428 34.3007 8.37678 32.7232C6.79878 31.1452 5.51699 29.2717 4.62979 27.2015C3.74296 25.1323 3.25 22.7657 3.25 20.5C3.25 18.1363 3.74213 15.869 4.6306 13.6966C5.51777 11.6272 6.79926 9.7543 8.37678 8.17678C9.9543 6.59926 11.8272 5.31777 13.8966 4.4306C18.2348 2.65647 23.2652 2.65647 27.6034 4.4306C29.6728 5.31777 31.5457 6.59926 33.1232 8.17678C34.7007 9.75428 35.9822 11.6272 36.8694 13.6965C37.7579 15.869 38.25 18.1363 38.25 20.5C38.25 22.7657 37.757 25.1323 36.8702 27.2015C35.983 29.2717 34.7012 31.1452 33.1232 32.7232C31.5457 34.3007 29.6728 35.5822 27.6035 36.4694Z" fill="white" stroke="white" stroke-width="0.5"/>
</svg>
