<svg width="51" height="51" viewBox="0 0 51 51" fill="none" xmlns="http://www.w3.org/2000/svg">
<path d="M35.0939 17.9131L35.0876 17.9058L35.0808 17.899L34.8864 17.7045L48.0177 4.57325V13.25C48.0177 13.883 48.5008 14.3662 49.1338 14.3662C49.3947 14.3662 49.6688 14.2405 49.8743 14.0537C50.0832 13.8638 50.25 13.5842 50.25 13.25V1.86616C50.25 1.53198 50.0832 1.25237 49.8743 1.06249C49.6688 0.875657 49.3947 0.75 49.1338 0.75H37.75C37.117 0.75 36.6338 1.23314 36.6338 1.86616C36.6338 2.49918 37.117 2.98232 37.75 2.98232H46.4268L33.2955 16.1136L33.101 15.9192L33.1013 15.9189L33.0907 15.9095C29.5775 12.7727 25.0627 11.1439 20.303 11.1439C9.52355 11.1439 0.75 19.9175 0.75 30.697C0.75 41.4765 9.52355 50.25 20.303 50.25C31.0825 50.25 39.8561 41.4765 39.8561 30.697C39.8561 25.9331 38.101 21.4214 35.0939 17.9131ZM27.0101 14.7172L27.0112 14.7176C29.1278 15.6131 30.9566 16.8328 32.5 18.3763C34.1271 20.0034 35.3875 21.8738 36.2824 23.9888C37.1764 26.1019 37.6237 28.3372 37.6237 30.697C37.6237 33.0567 37.1764 35.292 36.2824 37.4051C35.388 39.519 34.1289 41.3463 32.5046 42.8895L32.5044 42.8892L32.4955 42.8985C30.9524 44.5229 29.1251 45.782 27.0112 46.6763C24.8981 47.5703 22.6628 48.0177 20.303 48.0177C17.9433 48.0177 15.708 47.5703 13.5949 46.6763C11.481 45.782 9.65366 44.5229 8.11054 42.8985L8.11078 42.8983L8.10148 42.8895C6.47715 41.3463 5.21802 39.519 4.32368 37.4051C3.42967 35.292 2.98232 33.0567 2.98232 30.697C2.98232 28.3372 3.42967 26.1019 4.32368 23.9888C5.21851 21.8738 6.47896 20.0034 8.10607 18.3763C9.6495 16.8328 11.4782 15.6131 13.5949 14.7176L13.596 14.7172C17.8639 12.8881 22.7422 12.8881 27.0101 14.7172Z" fill="white" stroke="white" stroke-width="0.5"/>
</svg>
